<?xml version="1.0" encoding="utf-8"?>
<!-- Generator: Adobe Illustrator 24.3.0, SVG Export Plug-In . SVG Version: 6.00 Build 0)  -->
<svg version="1.1" id="Слой_1" xmlns="http://www.w3.org/2000/svg" xmlns:xlink="http://www.w3.org/1999/xlink" x="0px" y="0px"
	 viewBox="0 0 761.2 74.9" style="enable-background:new 0 0 761.2 74.9;" xml:space="preserve">
<style type="text/css">
	.st0{fill:#FEFEFE;}
</style>
<path class="st0" d="M74.9,37.4c0,20.7-16.8,37.4-37.4,37.4S0,58.1,0,37.4S16.8,0,37.4,0l0,0C58.1,0,74.9,16.8,74.9,37.4L74.9,37.4z
	 M37.9,18.3c-10.8,0-19.6,8.7-19.6,19.5c0,10.8,8.7,19.6,19.5,19.6c10.8,0,19.6-8.7,19.6-19.5c0,0,0,0,0,0l0,0
	C57.4,27.1,48.7,18.3,37.9,18.3C37.9,18.3,37.9,18.3,37.9,18.3L37.9,18.3z"/>
<path class="st0" d="M61,38.1c0,5.1,4.1,9.2,9.2,9.2h85.5c5.1-0.2,9.1-4.4,8.9-9.5c-0.2-4.9-4.1-8.8-8.9-8.9H70.2
	C65.1,28.9,61,33,61,38.1C61,38.1,61,38.1,61,38.1z"/>
<path class="st0" d="M120.7,44.9h9c1,0,1.7,0.8,1.7,1.7v14.8c0,1-0.8,1.7-1.7,1.7h-9c-1,0-1.7-0.8-1.7-1.7V46.6
	C118.9,45.7,119.7,44.9,120.7,44.9z"/>
<path class="st0" d="M143.1,44.9h8.2c1,0,1.7,0.8,1.7,1.7v14.8c0,1-0.8,1.7-1.7,1.7h-8.2c-1,0-1.7-0.8-1.7-1.7V46.6
	C141.4,45.7,142.2,44.9,143.1,44.9z"/>
<path class="st0" d="M119,43.2v10.8h12.5v-1.7c0-1.4,1.1-2.5,2.5-2.5h5c1.4,0,2.5,1.1,2.5,2.5v1.7h11.6V43.2H119z"/>
<path class="st0" d="M189.7,4.1h12.1v38.4l17.8-19.8h15.1l-20.7,23l23.2,25h-15l-20.4-22.1v22.2h-12.1V4.1z"/>
<path class="st0" d="M240.8,4.1h12.1v66.7h-12.1V4.1z"/>
<path class="st0" d="M263.8,22.7H276v23.2c0,4.5,0.3,7.6,0.9,9.4c0.5,1.6,1.6,3.1,3,4.1c1.5,1,3.3,1.5,5.1,1.5
	c1.8,0.1,3.6-0.4,5.1-1.4c1.5-1,2.6-2.5,3.1-4.2c0.5-1.4,0.8-4.3,0.8-8.9V22.7h12.1V43c0,8.4-0.7,14.1-2,17.2
	c-1.4,3.6-3.9,6.6-7.1,8.8c-3.2,2-7.2,3-12,3c-5.3,0-9.5-1.2-12.8-3.5c-3.3-2.4-5.7-5.9-6.9-9.9c-1-2.9-1.4-8.2-1.4-15.9L263.8,22.7
	z"/>
<path class="st0" d="M365.2,32.4l-10,5.5c-3-3.5-7.5-5.5-12.1-5.3c-4-0.2-8,1.3-11,4c-2.8,2.7-4.3,6.5-4.2,10.3
	c-0.1,3.7,1.3,7.4,4,10c2.9,2.7,6.7,4.1,10.6,3.9c5.4,0,9.6-1.8,12.6-5.5l9.5,6.5c-5.1,6.8-12.4,10.1-21.8,10.1
	c-8.5,0-15.1-2.5-19.9-7.5c-8-8.2-9.5-20.7-3.7-30.5c2.3-3.9,5.7-7.1,9.7-9.2c4.3-2.3,9.1-3.4,14-3.4c4.5-0.1,8.9,0.9,12.9,2.9
	C359.7,26.1,362.9,28.9,365.2,32.4z"/>
<path class="st0" d="M376.2,4.1h12v23.4c2.1-1.9,4.5-3.4,7.1-4.5c2.3-1,4.8-1.5,7.2-1.5c4.5-0.1,8.9,1.7,12.1,5
	c2.8,2.9,4.2,7.1,4.2,12.6v31.7h-11.9V49.7c0-5.6-0.3-9.3-0.8-11.3c-0.4-1.7-1.3-3.3-2.7-4.4c-1.4-1-3-1.5-4.8-1.5
	c-2.3,0-4.6,0.8-6.3,2.4c-1.8,1.8-3.1,4.1-3.6,6.6c-0.4,1.4-0.5,4.8-0.5,9.9v19.3h-12L376.2,4.1z"/>
<path class="st0" d="M463.4,5.7h12.1l15.1,45.3l15.2-45.3h12l10.9,65h-12l-7-41.1l-13.7,41.1H485l-13.6-41.1l-7.1,41.1h-12.1
	L463.4,5.7z"/>
<path class="st0" d="M585.4,50.2h-38.8c0.4,3.2,2,6.1,4.5,8.2c2.6,2.1,5.9,3.1,9.3,3c4.4,0.1,8.6-1.6,11.6-4.7l10.2,4.8
	c-2.3,3.4-5.4,6.2-9.1,8c-3.9,1.8-8.3,2.7-12.6,2.6c-7.5,0-13.7-2.4-18.4-7.1c-4.7-4.7-7.3-11.2-7.1-17.9c0-7.3,2.4-13.4,7.1-18.3
	c4.6-4.8,11.1-7.5,17.8-7.3c7.6,0,13.7,2.4,18.5,7.3c4.7,4.8,7.1,11.2,7.1,19.2L585.4,50.2z M573.3,40.7c-0.8-2.7-2.4-5-4.7-6.5
	c-2.4-1.7-5.2-2.6-8.2-2.5c-3.2-0.1-6.3,0.9-8.8,2.8c-1.6,1.2-3.1,3.2-4.4,6.2H573.3z"/>
<path class="st0" d="M596.6,4.9h12.1v17.7h7.2V33h-7.2v37.7h-12.1V33h-6.2V22.7h6.2V4.9z"/>
<path class="st0" d="M619.5,22.7h10.3v6c1-2.2,2.5-4.1,4.5-5.4c1.8-1.2,3.9-1.9,6.1-1.9c1.7,0,3.4,0.5,4.9,1.2L641.5,33
	c-1.1-0.6-2.3-0.9-3.5-1c-1.9,0-3.4,1.1-4.7,3.5c-1.3,2.3-1.9,6.8-1.9,13.5v2.3v19.4h-12L619.5,22.7z"/>
<path class="st0" d="M656,2.9c2.1,0,4,0.8,5.4,2.3c1.5,1.5,2.3,3.5,2.3,5.6c0,2.1-0.8,4.1-2.2,5.5c-1.4,1.5-3.3,2.3-5.4,2.3
	c-2.1,0-4.1-0.8-5.5-2.3c-1.5-1.5-2.3-3.5-2.3-5.6c0-2,0.8-4,2.2-5.4C652,3.7,654,2.8,656,2.9z M650,22.7h12v48.1h-12.1L650,22.7z"
	/>
<path class="st0" d="M720,32.4l-10,5.5c-3-3.5-7.5-5.5-12.1-5.3c-4-0.2-8,1.3-11,4c-2.8,2.7-4.3,6.5-4.2,10.3c-0.1,3.7,1.3,7.4,4,10
	c2.9,2.7,6.7,4.1,10.6,3.9c5.4,0,9.6-1.8,12.6-5.5l9.5,6.5c-5.1,6.8-12.4,10.1-21.8,10.1c-8.4,0-15.1-2.5-19.9-7.5
	c-9.7-9.8-9.6-25.6,0.2-35.4c1.7-1.7,3.7-3.2,5.9-4.3c4.3-2.3,9.1-3.4,14-3.4c4.5-0.1,8.9,0.9,12.9,2.9
	C714.5,26.1,717.7,28.9,720,32.4z"/>
<path class="st0" d="M760.3,29.4l-7.5,7.5c-3-3-5.8-4.5-8.3-4.5c-1.1-0.1-2.2,0.2-3.2,0.9c-0.7,0.5-1.1,1.3-1.2,2.1
	c0,0.7,0.3,1.3,0.7,1.8c1.1,0.9,2.3,1.7,3.6,2.2l4.4,2.2c4.7,2.3,7.9,4.6,9.6,7c4.1,6,3.2,14.1-2.1,19.1c-3.1,2.9-7.3,4.3-12.6,4.3
	c-6.6,0.2-12.9-2.9-16.8-8.2l7.4-8.1c1.4,1.6,3.1,3,5,4c1.5,0.9,3.3,1.4,5.1,1.5c1.4,0.1,2.7-0.3,3.8-1.2c0.9-0.6,1.4-1.6,1.5-2.7
	c0-1.9-1.8-3.7-5.3-5.4l-4.1-2c-7.8-3.9-11.7-8.8-11.7-14.7c0-3.7,1.6-7.3,4.4-9.8c3.1-2.7,7.1-4.2,11.2-4c6.3,0,12.1,3,15.8,8
	L760.3,29.4z"/>
</svg>
